<mxfile host="app.diagrams.net" agent="Mozilla/5.0 (Windows NT 10.0; Win64; x64) AppleWebKit/537.36 (KHTML, like Gecko) Chrome/134.0.0.0 Safari/537.36 Edg/134.0.0.0" version="26.1.1">
  <diagram id="C5RBs43oDa-KdzZeNtuy" name="Page-1">
    <mxGraphModel dx="1366" dy="982" grid="1" gridSize="10" guides="1" tooltips="1" connect="1" arrows="1" fold="1" page="1" pageScale="1" pageWidth="827" pageHeight="1169" math="0" shadow="0">
      <root>
        <mxCell id="WIyWlLk6GJQsqaUBKTNV-0" />
        <mxCell id="WIyWlLk6GJQsqaUBKTNV-1" parent="WIyWlLk6GJQsqaUBKTNV-0" />
        <mxCell id="0g_71RgqN2uWxOdEB8ib-0" value="ScenarioNode" style="rounded=0;whiteSpace=wrap;html=1;shadow=1;fillColor=#e1d5e7;strokeColor=#9673a6;verticalAlign=top;align=left;fontStyle=1;textShadow=1;" parent="WIyWlLk6GJQsqaUBKTNV-1" vertex="1">
          <mxGeometry x="40" y="80" width="330" height="710" as="geometry" />
        </mxCell>
        <mxCell id="0g_71RgqN2uWxOdEB8ib-8" value="&lt;ul&gt;&lt;li&gt;&lt;b&gt;ScenarioGuid:&amp;nbsp;&lt;/b&gt;&lt;i&gt;&lt;font style=&quot;font-size: 9px;&quot;&gt;c62b5c03-f3a8-4ac2-a5e0-b70ac632b99b&lt;/font&gt;&lt;/i&gt;&lt;/li&gt;&lt;/ul&gt;" style="rounded=0;whiteSpace=wrap;html=1;shadow=1;fillColor=#fff2cc;strokeColor=#d6b656;textShadow=1;align=left;" parent="WIyWlLk6GJQsqaUBKTNV-1" vertex="1">
          <mxGeometry x="50" y="110" width="310" height="40" as="geometry" />
        </mxCell>
        <mxCell id="0g_71RgqN2uWxOdEB8ib-10" value="&lt;ul&gt;&lt;li&gt;&lt;b&gt;ScenarioName: &lt;/b&gt;&lt;font style=&quot;&quot; size=&quot;1&quot;&gt;&lt;i style=&quot;&quot;&gt;west-of-house&lt;/i&gt;&lt;/font&gt;&lt;/li&gt;&lt;/ul&gt;" style="rounded=0;whiteSpace=wrap;html=1;shadow=1;fillColor=#fff2cc;strokeColor=#d6b656;textShadow=1;align=left;" parent="WIyWlLk6GJQsqaUBKTNV-1" vertex="1">
          <mxGeometry x="50" y="160" width="310" height="40" as="geometry" />
        </mxCell>
        <mxCell id="0g_71RgqN2uWxOdEB8ib-11" value="Map" style="rounded=0;whiteSpace=wrap;html=1;fontStyle=1;textShadow=1;verticalAlign=top;align=left;shadow=1;fillColor=#dae8fc;strokeColor=#6c8ebf;" parent="WIyWlLk6GJQsqaUBKTNV-1" vertex="1">
          <mxGeometry x="50" y="210" width="310" height="330" as="geometry" />
        </mxCell>
        <mxCell id="0g_71RgqN2uWxOdEB8ib-12" value="&lt;ul&gt;&lt;li&gt;BackgroundImagePrefab: &lt;span style=&quot;font-weight: normal;&quot;&gt;&lt;font style=&quot;font-size: 10px;&quot;&gt;&lt;i&gt;&amp;lt;background_image&amp;gt;&lt;/i&gt;&lt;/font&gt;&lt;/span&gt;&lt;/li&gt;&lt;/ul&gt;" style="rounded=0;whiteSpace=wrap;html=1;shadow=1;fillColor=#b0e3e6;strokeColor=#0e8088;fontStyle=1;textShadow=1;align=left;" parent="WIyWlLk6GJQsqaUBKTNV-1" vertex="1">
          <mxGeometry x="60" y="240" width="290" height="40" as="geometry" />
        </mxCell>
        <mxCell id="0g_71RgqN2uWxOdEB8ib-13" value="&lt;ul&gt;&lt;li&gt;BackgroundMusicPrefab: &lt;span style=&quot;font-weight: normal;&quot;&gt;&lt;font style=&quot;font-size: 10px;&quot;&gt;&lt;i&gt;&amp;lt;background_music&amp;gt;&lt;/i&gt;&lt;/font&gt;&lt;/span&gt;&lt;/li&gt;&lt;/ul&gt;" style="rounded=0;whiteSpace=wrap;html=1;shadow=1;fillColor=#b0e3e6;strokeColor=#0e8088;fontStyle=1;textShadow=1;align=left;" parent="WIyWlLk6GJQsqaUBKTNV-1" vertex="1">
          <mxGeometry x="60" y="290" width="290" height="40" as="geometry" />
        </mxCell>
        <mxCell id="0g_71RgqN2uWxOdEB8ib-14" value="&lt;ul&gt;&lt;li&gt;VoiceOverPrefab&amp;nbsp;&lt;span style=&quot;font-weight: normal;&quot;&gt;&lt;font style=&quot;font-size: 10px;&quot;&gt;&lt;i&gt;&amp;lt;voice_over&amp;gt;&lt;/i&gt;&lt;/font&gt;&lt;/span&gt;&lt;/li&gt;&lt;/ul&gt;" style="rounded=0;whiteSpace=wrap;html=1;shadow=1;fillColor=#b0e3e6;strokeColor=#0e8088;fontStyle=1;textShadow=1;align=left;" parent="WIyWlLk6GJQsqaUBKTNV-1" vertex="1">
          <mxGeometry x="60" y="340" width="290" height="40" as="geometry" />
        </mxCell>
        <mxCell id="0g_71RgqN2uWxOdEB8ib-15" value="&lt;ul&gt;&lt;li&gt;ShowPortrait: &lt;span style=&quot;font-weight: normal;&quot;&gt;&lt;font style=&quot;font-size: 10px;&quot;&gt;&lt;i&gt;&amp;lt;boolean&amp;gt;&lt;/i&gt;&lt;/font&gt;&lt;/span&gt;&lt;/li&gt;&lt;/ul&gt;" style="rounded=0;whiteSpace=wrap;html=1;shadow=1;fillColor=#b0e3e6;strokeColor=#0e8088;fontStyle=1;textShadow=1;align=left;" parent="WIyWlLk6GJQsqaUBKTNV-1" vertex="1">
          <mxGeometry x="60" y="390" width="290" height="40" as="geometry" />
        </mxCell>
        <mxCell id="0g_71RgqN2uWxOdEB8ib-16" value="&lt;ul&gt;&lt;li&gt;MapDescription: &lt;span style=&quot;font-weight: normal;&quot;&gt;&lt;font style=&quot;font-size: 10px;&quot;&gt;&lt;i&gt;&amp;lt;map_description&amp;gt;&lt;/i&gt;&lt;/font&gt;&lt;/span&gt;&lt;/li&gt;&lt;/ul&gt;" style="rounded=0;whiteSpace=wrap;html=1;shadow=1;fillColor=#b0e3e6;strokeColor=#0e8088;fontStyle=1;textShadow=1;align=left;" parent="WIyWlLk6GJQsqaUBKTNV-1" vertex="1">
          <mxGeometry x="60" y="440" width="290" height="40" as="geometry" />
        </mxCell>
        <mxCell id="0g_71RgqN2uWxOdEB8ib-17" value="&lt;ul&gt;&lt;li&gt;ScenePrefab ...[]&lt;/li&gt;&lt;/ul&gt;" style="rounded=0;whiteSpace=wrap;html=1;shadow=1;fillColor=#bac8d3;strokeColor=#23445d;fontStyle=1;textShadow=1;align=left;" parent="WIyWlLk6GJQsqaUBKTNV-1" vertex="1">
          <mxGeometry x="60" y="490" width="290" height="40" as="geometry" />
        </mxCell>
        <mxCell id="0g_71RgqN2uWxOdEB8ib-18" value="ScenarioCommands" style="rounded=0;whiteSpace=wrap;html=1;shadow=1;fillColor=#fad9d5;strokeColor=#ae4132;fontStyle=1;verticalAlign=top;textShadow=1;align=left;" parent="WIyWlLk6GJQsqaUBKTNV-1" vertex="1">
          <mxGeometry x="50" y="550" width="310" height="230" as="geometry" />
        </mxCell>
        <mxCell id="0g_71RgqN2uWxOdEB8ib-20" value="" style="rounded=0;whiteSpace=wrap;html=1;textShadow=1;fillColor=#cce5ff;strokeColor=#36393d;shadow=1;" parent="WIyWlLk6GJQsqaUBKTNV-1" vertex="1">
          <mxGeometry x="60" y="585" width="290" height="85" as="geometry" />
        </mxCell>
        <mxCell id="0g_71RgqN2uWxOdEB8ib-21" value="&lt;div style=&quot;&quot;&gt;&lt;ul&gt;&lt;li&gt;&lt;b style=&quot;background-color: transparent; color: light-dark(rgb(0, 0, 0), rgb(255, 255, 255));&quot;&gt;NavigationGuid:&lt;/b&gt;&lt;span style=&quot;background-color: transparent; color: light-dark(rgb(0, 0, 0), rgb(255, 255, 255));&quot;&gt;&amp;nbsp;&lt;/span&gt;&lt;i style=&quot;background-color: transparent; color: light-dark(rgb(0, 0, 0), rgb(255, 255, 255));&quot;&gt;&lt;font style=&quot;font-size: 9px;&quot;&gt;7ed69b49-e12c-460e-a0e4-dc17d1e5714e&lt;/font&gt;&lt;/i&gt;&lt;/li&gt;&lt;/ul&gt;&lt;/div&gt;" style="rounded=0;whiteSpace=wrap;html=1;shadow=1;fillColor=#d5e8d4;strokeColor=#82b366;gradientColor=#97d077;align=left;textShadow=1;" parent="WIyWlLk6GJQsqaUBKTNV-1" vertex="1">
          <mxGeometry x="70" y="590" width="270" height="30" as="geometry" />
        </mxCell>
        <mxCell id="0g_71RgqN2uWxOdEB8ib-22" value="&lt;div style=&quot;&quot;&gt;&lt;ul&gt;&lt;li style=&quot;&quot;&gt;&lt;b style=&quot;background-color: transparent; color: light-dark(rgb(0, 0, 0), rgb(255, 255, 255));&quot;&gt;NavigationText:&lt;/b&gt;&lt;span style=&quot;background-color: transparent; color: light-dark(rgb(0, 0, 0), rgb(255, 255, 255));&quot;&gt;&amp;nbsp;&lt;font size=&quot;1&quot;&gt;&lt;i&gt;&amp;lt;navifation_text&amp;gt;&lt;/i&gt;&lt;/font&gt;&lt;/span&gt;&lt;/li&gt;&lt;/ul&gt;&lt;/div&gt;" style="rounded=0;whiteSpace=wrap;html=1;shadow=1;fillColor=#d5e8d4;strokeColor=#82b366;gradientColor=#97d077;align=left;textShadow=1;" parent="WIyWlLk6GJQsqaUBKTNV-1" vertex="1">
          <mxGeometry x="70" y="630" width="270" height="30" as="geometry" />
        </mxCell>
        <mxCell id="0g_71RgqN2uWxOdEB8ib-23" value="" style="rounded=0;whiteSpace=wrap;html=1;textShadow=1;fillColor=#cce5ff;strokeColor=#36393d;shadow=1;" parent="WIyWlLk6GJQsqaUBKTNV-1" vertex="1">
          <mxGeometry x="60" y="680" width="290" height="85" as="geometry" />
        </mxCell>
        <mxCell id="0g_71RgqN2uWxOdEB8ib-24" value="&lt;div style=&quot;&quot;&gt;&lt;ul&gt;&lt;li&gt;&lt;b style=&quot;background-color: transparent; color: light-dark(rgb(0, 0, 0), rgb(255, 255, 255));&quot;&gt;NavigationGuid:&lt;/b&gt;&lt;span style=&quot;background-color: transparent; color: light-dark(rgb(0, 0, 0), rgb(255, 255, 255));&quot;&gt;&amp;nbsp;&lt;/span&gt;&lt;i style=&quot;background-color: transparent; color: light-dark(rgb(0, 0, 0), rgb(255, 255, 255));&quot;&gt;&lt;font style=&quot;font-size: 9px;&quot;&gt;7ed69b49-e12c-460e-a0e4-dc17d1e5714e&lt;/font&gt;&lt;/i&gt;&lt;/li&gt;&lt;/ul&gt;&lt;/div&gt;" style="rounded=0;whiteSpace=wrap;html=1;shadow=1;fillColor=#d5e8d4;strokeColor=#82b366;gradientColor=#97d077;align=left;textShadow=1;" parent="WIyWlLk6GJQsqaUBKTNV-1" vertex="1">
          <mxGeometry x="70" y="685" width="270" height="30" as="geometry" />
        </mxCell>
        <mxCell id="0g_71RgqN2uWxOdEB8ib-25" value="&lt;div style=&quot;&quot;&gt;&lt;ul&gt;&lt;li style=&quot;&quot;&gt;&lt;b style=&quot;background-color: transparent; color: light-dark(rgb(0, 0, 0), rgb(255, 255, 255));&quot;&gt;NavigationText:&lt;/b&gt;&lt;span style=&quot;background-color: transparent; color: light-dark(rgb(0, 0, 0), rgb(255, 255, 255));&quot;&gt;&amp;nbsp;&lt;font size=&quot;1&quot;&gt;&lt;i&gt;&amp;lt;navifation_text&amp;gt;&lt;/i&gt;&lt;/font&gt;&lt;/span&gt;&lt;/li&gt;&lt;/ul&gt;&lt;/div&gt;" style="rounded=0;whiteSpace=wrap;html=1;shadow=1;fillColor=#d5e8d4;strokeColor=#82b366;gradientColor=#97d077;align=left;textShadow=1;" parent="WIyWlLk6GJQsqaUBKTNV-1" vertex="1">
          <mxGeometry x="70" y="725" width="270" height="30" as="geometry" />
        </mxCell>
        <mxCell id="0g_71RgqN2uWxOdEB8ib-26" value="ScenarioNode" style="rounded=0;whiteSpace=wrap;html=1;shadow=1;fillColor=#e1d5e7;strokeColor=#9673a6;verticalAlign=top;align=left;fontStyle=1;textShadow=1;" parent="WIyWlLk6GJQsqaUBKTNV-1" vertex="1">
          <mxGeometry x="510" y="80" width="330" height="710" as="geometry" />
        </mxCell>
        <mxCell id="0g_71RgqN2uWxOdEB8ib-27" value="&lt;ul&gt;&lt;li&gt;&lt;b&gt;ScenarioGuid:&amp;nbsp;&lt;/b&gt;&lt;i&gt;&lt;font style=&quot;font-size: 9px;&quot;&gt;c62b5c03-f3a8-4ac2-a5e0-b70ac632b99b&lt;/font&gt;&lt;/i&gt;&lt;/li&gt;&lt;/ul&gt;" style="rounded=0;whiteSpace=wrap;html=1;shadow=1;fillColor=#fff2cc;strokeColor=#d6b656;textShadow=1;align=left;" parent="WIyWlLk6GJQsqaUBKTNV-1" vertex="1">
          <mxGeometry x="520" y="110" width="310" height="40" as="geometry" />
        </mxCell>
        <mxCell id="0g_71RgqN2uWxOdEB8ib-28" value="&lt;ul&gt;&lt;li&gt;&lt;b&gt;ScenarioName: &lt;/b&gt;&lt;font style=&quot;&quot; size=&quot;1&quot;&gt;&lt;i style=&quot;&quot;&gt;west-of-house&lt;/i&gt;&lt;/font&gt;&lt;/li&gt;&lt;/ul&gt;" style="rounded=0;whiteSpace=wrap;html=1;shadow=1;fillColor=#fff2cc;strokeColor=#d6b656;textShadow=1;align=left;" parent="WIyWlLk6GJQsqaUBKTNV-1" vertex="1">
          <mxGeometry x="520" y="160" width="310" height="40" as="geometry" />
        </mxCell>
        <mxCell id="0g_71RgqN2uWxOdEB8ib-29" value="Map" style="rounded=0;whiteSpace=wrap;html=1;fontStyle=1;textShadow=1;verticalAlign=top;align=left;shadow=1;fillColor=#dae8fc;strokeColor=#6c8ebf;" parent="WIyWlLk6GJQsqaUBKTNV-1" vertex="1">
          <mxGeometry x="520" y="210" width="310" height="330" as="geometry" />
        </mxCell>
        <mxCell id="0g_71RgqN2uWxOdEB8ib-30" value="&lt;ul&gt;&lt;li&gt;BackgroundImagePrefab: &lt;span style=&quot;font-weight: normal;&quot;&gt;&lt;font style=&quot;font-size: 10px;&quot;&gt;&lt;i&gt;&amp;lt;background_image&amp;gt;&lt;/i&gt;&lt;/font&gt;&lt;/span&gt;&lt;/li&gt;&lt;/ul&gt;" style="rounded=0;whiteSpace=wrap;html=1;shadow=1;fillColor=#b0e3e6;strokeColor=#0e8088;fontStyle=1;textShadow=1;align=left;" parent="WIyWlLk6GJQsqaUBKTNV-1" vertex="1">
          <mxGeometry x="530" y="240" width="290" height="40" as="geometry" />
        </mxCell>
        <mxCell id="0g_71RgqN2uWxOdEB8ib-31" value="&lt;ul&gt;&lt;li&gt;BackgroundMusicPrefab: &lt;span style=&quot;font-weight: normal;&quot;&gt;&lt;font style=&quot;font-size: 10px;&quot;&gt;&lt;i&gt;&amp;lt;background_music&amp;gt;&lt;/i&gt;&lt;/font&gt;&lt;/span&gt;&lt;/li&gt;&lt;/ul&gt;" style="rounded=0;whiteSpace=wrap;html=1;shadow=1;fillColor=#b0e3e6;strokeColor=#0e8088;fontStyle=1;textShadow=1;align=left;" parent="WIyWlLk6GJQsqaUBKTNV-1" vertex="1">
          <mxGeometry x="530" y="290" width="290" height="40" as="geometry" />
        </mxCell>
        <mxCell id="0g_71RgqN2uWxOdEB8ib-32" value="&lt;ul&gt;&lt;li&gt;VoiceOverPrefab&amp;nbsp;&lt;span style=&quot;font-weight: normal;&quot;&gt;&lt;font style=&quot;font-size: 10px;&quot;&gt;&lt;i&gt;&amp;lt;voice_over&amp;gt;&lt;/i&gt;&lt;/font&gt;&lt;/span&gt;&lt;/li&gt;&lt;/ul&gt;" style="rounded=0;whiteSpace=wrap;html=1;shadow=1;fillColor=#b0e3e6;strokeColor=#0e8088;fontStyle=1;textShadow=1;align=left;" parent="WIyWlLk6GJQsqaUBKTNV-1" vertex="1">
          <mxGeometry x="530" y="340" width="290" height="40" as="geometry" />
        </mxCell>
        <mxCell id="0g_71RgqN2uWxOdEB8ib-33" value="&lt;ul&gt;&lt;li&gt;ShowPortrait: &lt;span style=&quot;font-weight: normal;&quot;&gt;&lt;font style=&quot;font-size: 10px;&quot;&gt;&lt;i&gt;&amp;lt;boolean&amp;gt;&lt;/i&gt;&lt;/font&gt;&lt;/span&gt;&lt;/li&gt;&lt;/ul&gt;" style="rounded=0;whiteSpace=wrap;html=1;shadow=1;fillColor=#b0e3e6;strokeColor=#0e8088;fontStyle=1;textShadow=1;align=left;" parent="WIyWlLk6GJQsqaUBKTNV-1" vertex="1">
          <mxGeometry x="530" y="390" width="290" height="40" as="geometry" />
        </mxCell>
        <mxCell id="0g_71RgqN2uWxOdEB8ib-34" value="&lt;ul&gt;&lt;li&gt;MapDescription: &lt;span style=&quot;font-weight: normal;&quot;&gt;&lt;font style=&quot;font-size: 10px;&quot;&gt;&lt;i&gt;&amp;lt;map_description&amp;gt;&lt;/i&gt;&lt;/font&gt;&lt;/span&gt;&lt;/li&gt;&lt;/ul&gt;" style="rounded=0;whiteSpace=wrap;html=1;shadow=1;fillColor=#b0e3e6;strokeColor=#0e8088;fontStyle=1;textShadow=1;align=left;" parent="WIyWlLk6GJQsqaUBKTNV-1" vertex="1">
          <mxGeometry x="530" y="440" width="290" height="40" as="geometry" />
        </mxCell>
        <mxCell id="0g_71RgqN2uWxOdEB8ib-35" value="&lt;ul&gt;&lt;li&gt;ScenePrefab ...[]&lt;/li&gt;&lt;/ul&gt;" style="rounded=0;whiteSpace=wrap;html=1;shadow=1;fillColor=#bac8d3;strokeColor=#23445d;fontStyle=1;textShadow=1;align=left;" parent="WIyWlLk6GJQsqaUBKTNV-1" vertex="1">
          <mxGeometry x="530" y="490" width="290" height="40" as="geometry" />
        </mxCell>
        <mxCell id="0g_71RgqN2uWxOdEB8ib-36" value="ScenarioCommands" style="rounded=0;whiteSpace=wrap;html=1;shadow=1;fillColor=#fad9d5;strokeColor=#ae4132;fontStyle=1;verticalAlign=top;textShadow=1;align=left;" parent="WIyWlLk6GJQsqaUBKTNV-1" vertex="1">
          <mxGeometry x="520" y="550" width="310" height="230" as="geometry" />
        </mxCell>
        <mxCell id="0g_71RgqN2uWxOdEB8ib-37" value="" style="rounded=0;whiteSpace=wrap;html=1;textShadow=1;fillColor=#cce5ff;strokeColor=#36393d;shadow=1;" parent="WIyWlLk6GJQsqaUBKTNV-1" vertex="1">
          <mxGeometry x="530" y="585" width="290" height="85" as="geometry" />
        </mxCell>
        <mxCell id="0g_71RgqN2uWxOdEB8ib-38" value="&lt;div style=&quot;&quot;&gt;&lt;ul&gt;&lt;li&gt;&lt;b style=&quot;background-color: transparent; color: light-dark(rgb(0, 0, 0), rgb(255, 255, 255));&quot;&gt;NavigationGuid:&lt;/b&gt;&lt;span style=&quot;background-color: transparent; color: light-dark(rgb(0, 0, 0), rgb(255, 255, 255));&quot;&gt;&amp;nbsp;&lt;/span&gt;&lt;i style=&quot;background-color: transparent; color: light-dark(rgb(0, 0, 0), rgb(255, 255, 255));&quot;&gt;&lt;font style=&quot;font-size: 9px;&quot;&gt;7ed69b49-e12c-460e-a0e4-dc17d1e5714e&lt;/font&gt;&lt;/i&gt;&lt;/li&gt;&lt;/ul&gt;&lt;/div&gt;" style="rounded=0;whiteSpace=wrap;html=1;shadow=1;fillColor=#d5e8d4;strokeColor=#82b366;gradientColor=#97d077;align=left;textShadow=1;" parent="WIyWlLk6GJQsqaUBKTNV-1" vertex="1">
          <mxGeometry x="540" y="590" width="270" height="30" as="geometry" />
        </mxCell>
        <mxCell id="0g_71RgqN2uWxOdEB8ib-39" value="&lt;div style=&quot;&quot;&gt;&lt;ul&gt;&lt;li style=&quot;&quot;&gt;&lt;b style=&quot;background-color: transparent; color: light-dark(rgb(0, 0, 0), rgb(255, 255, 255));&quot;&gt;NavigationText:&lt;/b&gt;&lt;span style=&quot;background-color: transparent; color: light-dark(rgb(0, 0, 0), rgb(255, 255, 255));&quot;&gt;&amp;nbsp;&lt;font size=&quot;1&quot;&gt;&lt;i&gt;&amp;lt;navifation_text&amp;gt;&lt;/i&gt;&lt;/font&gt;&lt;/span&gt;&lt;/li&gt;&lt;/ul&gt;&lt;/div&gt;" style="rounded=0;whiteSpace=wrap;html=1;shadow=1;fillColor=#d5e8d4;strokeColor=#82b366;gradientColor=#97d077;align=left;textShadow=1;" parent="WIyWlLk6GJQsqaUBKTNV-1" vertex="1">
          <mxGeometry x="540" y="630" width="270" height="30" as="geometry" />
        </mxCell>
        <mxCell id="0g_71RgqN2uWxOdEB8ib-40" value="" style="rounded=0;whiteSpace=wrap;html=1;textShadow=1;fillColor=#cce5ff;strokeColor=#36393d;shadow=1;" parent="WIyWlLk6GJQsqaUBKTNV-1" vertex="1">
          <mxGeometry x="530" y="680" width="290" height="85" as="geometry" />
        </mxCell>
        <mxCell id="0g_71RgqN2uWxOdEB8ib-41" value="&lt;div style=&quot;&quot;&gt;&lt;ul&gt;&lt;li&gt;&lt;b style=&quot;background-color: transparent; color: light-dark(rgb(0, 0, 0), rgb(255, 255, 255));&quot;&gt;NavigationGuid:&lt;/b&gt;&lt;span style=&quot;background-color: transparent; color: light-dark(rgb(0, 0, 0), rgb(255, 255, 255));&quot;&gt;&amp;nbsp;&lt;/span&gt;&lt;i style=&quot;background-color: transparent; color: light-dark(rgb(0, 0, 0), rgb(255, 255, 255));&quot;&gt;&lt;font style=&quot;font-size: 9px;&quot;&gt;7ed69b49-e12c-460e-a0e4-dc17d1e5714e&lt;/font&gt;&lt;/i&gt;&lt;/li&gt;&lt;/ul&gt;&lt;/div&gt;" style="rounded=0;whiteSpace=wrap;html=1;shadow=1;fillColor=#d5e8d4;strokeColor=#82b366;gradientColor=#97d077;align=left;textShadow=1;" parent="WIyWlLk6GJQsqaUBKTNV-1" vertex="1">
          <mxGeometry x="540" y="685" width="270" height="30" as="geometry" />
        </mxCell>
        <mxCell id="0g_71RgqN2uWxOdEB8ib-42" value="&lt;div style=&quot;&quot;&gt;&lt;ul&gt;&lt;li style=&quot;&quot;&gt;&lt;b style=&quot;background-color: transparent; color: light-dark(rgb(0, 0, 0), rgb(255, 255, 255));&quot;&gt;NavigationText:&lt;/b&gt;&lt;span style=&quot;background-color: transparent; color: light-dark(rgb(0, 0, 0), rgb(255, 255, 255));&quot;&gt;&amp;nbsp;&lt;font size=&quot;1&quot;&gt;&lt;i&gt;&amp;lt;navifation_text&amp;gt;&lt;/i&gt;&lt;/font&gt;&lt;/span&gt;&lt;/li&gt;&lt;/ul&gt;&lt;/div&gt;" style="rounded=0;whiteSpace=wrap;html=1;shadow=1;fillColor=#d5e8d4;strokeColor=#82b366;gradientColor=#97d077;align=left;textShadow=1;" parent="WIyWlLk6GJQsqaUBKTNV-1" vertex="1">
          <mxGeometry x="540" y="725" width="270" height="30" as="geometry" />
        </mxCell>
        <mxCell id="0g_71RgqN2uWxOdEB8ib-43" style="edgeStyle=orthogonalEdgeStyle;rounded=0;orthogonalLoop=1;jettySize=auto;html=1;entryX=0;entryY=0.5;entryDx=0;entryDy=0;shadow=1;" parent="WIyWlLk6GJQsqaUBKTNV-1" source="0g_71RgqN2uWxOdEB8ib-21" target="0g_71RgqN2uWxOdEB8ib-27" edge="1">
          <mxGeometry relative="1" as="geometry" />
        </mxCell>
        <mxCell id="teTPtb7MXSoxvtRbdox9-0" value="ScenarioNode" style="rounded=0;whiteSpace=wrap;html=1;shadow=1;fillColor=#e1d5e7;strokeColor=#9673a6;verticalAlign=top;align=left;fontStyle=1;textShadow=1;" vertex="1" parent="WIyWlLk6GJQsqaUBKTNV-1">
          <mxGeometry x="510" y="820" width="330" height="710" as="geometry" />
        </mxCell>
        <mxCell id="teTPtb7MXSoxvtRbdox9-1" value="&lt;ul&gt;&lt;li&gt;&lt;b&gt;ScenarioGuid:&amp;nbsp;&lt;/b&gt;&lt;i&gt;&lt;font style=&quot;font-size: 9px;&quot;&gt;c62b5c03-f3a8-4ac2-a5e0-b70ac632b99b&lt;/font&gt;&lt;/i&gt;&lt;/li&gt;&lt;/ul&gt;" style="rounded=0;whiteSpace=wrap;html=1;shadow=1;fillColor=#fff2cc;strokeColor=#d6b656;textShadow=1;align=left;" vertex="1" parent="WIyWlLk6GJQsqaUBKTNV-1">
          <mxGeometry x="520" y="850" width="310" height="40" as="geometry" />
        </mxCell>
        <mxCell id="teTPtb7MXSoxvtRbdox9-2" value="&lt;ul&gt;&lt;li&gt;&lt;b&gt;ScenarioName: &lt;/b&gt;&lt;font style=&quot;&quot; size=&quot;1&quot;&gt;&lt;i style=&quot;&quot;&gt;west-of-house&lt;/i&gt;&lt;/font&gt;&lt;/li&gt;&lt;/ul&gt;" style="rounded=0;whiteSpace=wrap;html=1;shadow=1;fillColor=#fff2cc;strokeColor=#d6b656;textShadow=1;align=left;" vertex="1" parent="WIyWlLk6GJQsqaUBKTNV-1">
          <mxGeometry x="520" y="900" width="310" height="40" as="geometry" />
        </mxCell>
        <mxCell id="teTPtb7MXSoxvtRbdox9-3" value="Map" style="rounded=0;whiteSpace=wrap;html=1;fontStyle=1;textShadow=1;verticalAlign=top;align=left;shadow=1;fillColor=#dae8fc;strokeColor=#6c8ebf;" vertex="1" parent="WIyWlLk6GJQsqaUBKTNV-1">
          <mxGeometry x="520" y="950" width="310" height="330" as="geometry" />
        </mxCell>
        <mxCell id="teTPtb7MXSoxvtRbdox9-4" value="&lt;ul&gt;&lt;li&gt;BackgroundImagePrefab: &lt;span style=&quot;font-weight: normal;&quot;&gt;&lt;font style=&quot;font-size: 10px;&quot;&gt;&lt;i&gt;&amp;lt;background_image&amp;gt;&lt;/i&gt;&lt;/font&gt;&lt;/span&gt;&lt;/li&gt;&lt;/ul&gt;" style="rounded=0;whiteSpace=wrap;html=1;shadow=1;fillColor=#b0e3e6;strokeColor=#0e8088;fontStyle=1;textShadow=1;align=left;" vertex="1" parent="WIyWlLk6GJQsqaUBKTNV-1">
          <mxGeometry x="530" y="980" width="290" height="40" as="geometry" />
        </mxCell>
        <mxCell id="teTPtb7MXSoxvtRbdox9-5" value="&lt;ul&gt;&lt;li&gt;BackgroundMusicPrefab: &lt;span style=&quot;font-weight: normal;&quot;&gt;&lt;font style=&quot;font-size: 10px;&quot;&gt;&lt;i&gt;&amp;lt;background_music&amp;gt;&lt;/i&gt;&lt;/font&gt;&lt;/span&gt;&lt;/li&gt;&lt;/ul&gt;" style="rounded=0;whiteSpace=wrap;html=1;shadow=1;fillColor=#b0e3e6;strokeColor=#0e8088;fontStyle=1;textShadow=1;align=left;" vertex="1" parent="WIyWlLk6GJQsqaUBKTNV-1">
          <mxGeometry x="530" y="1030" width="290" height="40" as="geometry" />
        </mxCell>
        <mxCell id="teTPtb7MXSoxvtRbdox9-6" value="&lt;ul&gt;&lt;li&gt;VoiceOverPrefab&amp;nbsp;&lt;span style=&quot;font-weight: normal;&quot;&gt;&lt;font style=&quot;font-size: 10px;&quot;&gt;&lt;i&gt;&amp;lt;voice_over&amp;gt;&lt;/i&gt;&lt;/font&gt;&lt;/span&gt;&lt;/li&gt;&lt;/ul&gt;" style="rounded=0;whiteSpace=wrap;html=1;shadow=1;fillColor=#b0e3e6;strokeColor=#0e8088;fontStyle=1;textShadow=1;align=left;" vertex="1" parent="WIyWlLk6GJQsqaUBKTNV-1">
          <mxGeometry x="530" y="1080" width="290" height="40" as="geometry" />
        </mxCell>
        <mxCell id="teTPtb7MXSoxvtRbdox9-7" value="&lt;ul&gt;&lt;li&gt;ShowPortrait: &lt;span style=&quot;font-weight: normal;&quot;&gt;&lt;font style=&quot;font-size: 10px;&quot;&gt;&lt;i&gt;&amp;lt;boolean&amp;gt;&lt;/i&gt;&lt;/font&gt;&lt;/span&gt;&lt;/li&gt;&lt;/ul&gt;" style="rounded=0;whiteSpace=wrap;html=1;shadow=1;fillColor=#b0e3e6;strokeColor=#0e8088;fontStyle=1;textShadow=1;align=left;" vertex="1" parent="WIyWlLk6GJQsqaUBKTNV-1">
          <mxGeometry x="530" y="1130" width="290" height="40" as="geometry" />
        </mxCell>
        <mxCell id="teTPtb7MXSoxvtRbdox9-8" value="&lt;ul&gt;&lt;li&gt;MapDescription: &lt;span style=&quot;font-weight: normal;&quot;&gt;&lt;font style=&quot;font-size: 10px;&quot;&gt;&lt;i&gt;&amp;lt;map_description&amp;gt;&lt;/i&gt;&lt;/font&gt;&lt;/span&gt;&lt;/li&gt;&lt;/ul&gt;" style="rounded=0;whiteSpace=wrap;html=1;shadow=1;fillColor=#b0e3e6;strokeColor=#0e8088;fontStyle=1;textShadow=1;align=left;" vertex="1" parent="WIyWlLk6GJQsqaUBKTNV-1">
          <mxGeometry x="530" y="1180" width="290" height="40" as="geometry" />
        </mxCell>
        <mxCell id="teTPtb7MXSoxvtRbdox9-9" value="&lt;ul&gt;&lt;li&gt;ScenePrefab ...[]&lt;/li&gt;&lt;/ul&gt;" style="rounded=0;whiteSpace=wrap;html=1;shadow=1;fillColor=#bac8d3;strokeColor=#23445d;fontStyle=1;textShadow=1;align=left;" vertex="1" parent="WIyWlLk6GJQsqaUBKTNV-1">
          <mxGeometry x="530" y="1230" width="290" height="40" as="geometry" />
        </mxCell>
        <mxCell id="teTPtb7MXSoxvtRbdox9-10" value="ScenarioCommands" style="rounded=0;whiteSpace=wrap;html=1;shadow=1;fillColor=#fad9d5;strokeColor=#ae4132;fontStyle=1;verticalAlign=top;textShadow=1;align=left;" vertex="1" parent="WIyWlLk6GJQsqaUBKTNV-1">
          <mxGeometry x="520" y="1290" width="310" height="230" as="geometry" />
        </mxCell>
        <mxCell id="teTPtb7MXSoxvtRbdox9-11" value="" style="rounded=0;whiteSpace=wrap;html=1;textShadow=1;fillColor=#cce5ff;strokeColor=#36393d;shadow=1;" vertex="1" parent="WIyWlLk6GJQsqaUBKTNV-1">
          <mxGeometry x="530" y="1325" width="290" height="85" as="geometry" />
        </mxCell>
        <mxCell id="teTPtb7MXSoxvtRbdox9-12" value="&lt;div style=&quot;&quot;&gt;&lt;ul&gt;&lt;li&gt;&lt;b style=&quot;background-color: transparent; color: light-dark(rgb(0, 0, 0), rgb(255, 255, 255));&quot;&gt;NavigationGuid:&lt;/b&gt;&lt;span style=&quot;background-color: transparent; color: light-dark(rgb(0, 0, 0), rgb(255, 255, 255));&quot;&gt;&amp;nbsp;&lt;/span&gt;&lt;i style=&quot;background-color: transparent; color: light-dark(rgb(0, 0, 0), rgb(255, 255, 255));&quot;&gt;&lt;font style=&quot;font-size: 9px;&quot;&gt;7ed69b49-e12c-460e-a0e4-dc17d1e5714e&lt;/font&gt;&lt;/i&gt;&lt;/li&gt;&lt;/ul&gt;&lt;/div&gt;" style="rounded=0;whiteSpace=wrap;html=1;shadow=1;fillColor=#d5e8d4;strokeColor=#82b366;gradientColor=#97d077;align=left;textShadow=1;" vertex="1" parent="WIyWlLk6GJQsqaUBKTNV-1">
          <mxGeometry x="540" y="1330" width="270" height="30" as="geometry" />
        </mxCell>
        <mxCell id="teTPtb7MXSoxvtRbdox9-13" value="&lt;div style=&quot;&quot;&gt;&lt;ul&gt;&lt;li style=&quot;&quot;&gt;&lt;b style=&quot;background-color: transparent; color: light-dark(rgb(0, 0, 0), rgb(255, 255, 255));&quot;&gt;NavigationText:&lt;/b&gt;&lt;span style=&quot;background-color: transparent; color: light-dark(rgb(0, 0, 0), rgb(255, 255, 255));&quot;&gt;&amp;nbsp;&lt;font size=&quot;1&quot;&gt;&lt;i&gt;&amp;lt;navifation_text&amp;gt;&lt;/i&gt;&lt;/font&gt;&lt;/span&gt;&lt;/li&gt;&lt;/ul&gt;&lt;/div&gt;" style="rounded=0;whiteSpace=wrap;html=1;shadow=1;fillColor=#d5e8d4;strokeColor=#82b366;gradientColor=#97d077;align=left;textShadow=1;" vertex="1" parent="WIyWlLk6GJQsqaUBKTNV-1">
          <mxGeometry x="540" y="1370" width="270" height="30" as="geometry" />
        </mxCell>
        <mxCell id="teTPtb7MXSoxvtRbdox9-14" value="" style="rounded=0;whiteSpace=wrap;html=1;textShadow=1;fillColor=#cce5ff;strokeColor=#36393d;shadow=1;" vertex="1" parent="WIyWlLk6GJQsqaUBKTNV-1">
          <mxGeometry x="530" y="1420" width="290" height="85" as="geometry" />
        </mxCell>
        <mxCell id="teTPtb7MXSoxvtRbdox9-15" value="&lt;div style=&quot;&quot;&gt;&lt;ul&gt;&lt;li&gt;&lt;b style=&quot;background-color: transparent; color: light-dark(rgb(0, 0, 0), rgb(255, 255, 255));&quot;&gt;NavigationGuid:&lt;/b&gt;&lt;span style=&quot;background-color: transparent; color: light-dark(rgb(0, 0, 0), rgb(255, 255, 255));&quot;&gt;&amp;nbsp;&lt;/span&gt;&lt;i style=&quot;background-color: transparent; color: light-dark(rgb(0, 0, 0), rgb(255, 255, 255));&quot;&gt;&lt;font style=&quot;font-size: 9px;&quot;&gt;7ed69b49-e12c-460e-a0e4-dc17d1e5714e&lt;/font&gt;&lt;/i&gt;&lt;/li&gt;&lt;/ul&gt;&lt;/div&gt;" style="rounded=0;whiteSpace=wrap;html=1;shadow=1;fillColor=#d5e8d4;strokeColor=#82b366;gradientColor=#97d077;align=left;textShadow=1;" vertex="1" parent="WIyWlLk6GJQsqaUBKTNV-1">
          <mxGeometry x="540" y="1425" width="270" height="30" as="geometry" />
        </mxCell>
        <mxCell id="teTPtb7MXSoxvtRbdox9-16" value="&lt;div style=&quot;&quot;&gt;&lt;ul&gt;&lt;li style=&quot;&quot;&gt;&lt;b style=&quot;background-color: transparent; color: light-dark(rgb(0, 0, 0), rgb(255, 255, 255));&quot;&gt;NavigationText:&lt;/b&gt;&lt;span style=&quot;background-color: transparent; color: light-dark(rgb(0, 0, 0), rgb(255, 255, 255));&quot;&gt;&amp;nbsp;&lt;font size=&quot;1&quot;&gt;&lt;i&gt;&amp;lt;navifation_text&amp;gt;&lt;/i&gt;&lt;/font&gt;&lt;/span&gt;&lt;/li&gt;&lt;/ul&gt;&lt;/div&gt;" style="rounded=0;whiteSpace=wrap;html=1;shadow=1;fillColor=#d5e8d4;strokeColor=#82b366;gradientColor=#97d077;align=left;textShadow=1;" vertex="1" parent="WIyWlLk6GJQsqaUBKTNV-1">
          <mxGeometry x="540" y="1465" width="270" height="30" as="geometry" />
        </mxCell>
        <mxCell id="teTPtb7MXSoxvtRbdox9-17" style="edgeStyle=orthogonalEdgeStyle;rounded=0;orthogonalLoop=1;jettySize=auto;html=1;entryX=0;entryY=0.75;entryDx=0;entryDy=0;shadow=1;textShadow=1;" edge="1" parent="WIyWlLk6GJQsqaUBKTNV-1" source="0g_71RgqN2uWxOdEB8ib-22" target="teTPtb7MXSoxvtRbdox9-1">
          <mxGeometry relative="1" as="geometry" />
        </mxCell>
      </root>
    </mxGraphModel>
  </diagram>
</mxfile>
